<?xml version="1.0" encoding="utf-8"?>
<!-- Generator: Adobe Illustrator 18.0.0, SVG Export Plug-In . SVG Version: 6.00 Build 0)  -->
<!DOCTYPE svg PUBLIC "-//W3C//DTD SVG 1.1//EN" "http://www.w3.org/Graphics/SVG/1.1/DTD/svg11.dtd">
<svg version="1.1" id="Layer_1" xmlns="http://www.w3.org/2000/svg" xmlns:xlink="http://www.w3.org/1999/xlink" x="0px" y="0px"
	 viewBox="71 -13 101.5 52.5" enable-background="new 71 -13 101.5 52.5" xml:space="preserve">
<g id="troquel">
</g>
<g>
	<path fill="#CFCFCF" d="M146.1,13.1c-0.8,0-1.5,0.2-2,0.8c-0.6,0.6-0.8,1.3-0.8,2c0,0.8,0.2,1.5,0.8,2c0.5,0.5,1.3,0.8,2,0.8
		c0.2,0,1.4,0,2.8,0V16c0-0.8-0.2-1.5-0.8-2C147.6,13.4,146.9,13.1,146.1,13.1z"/>
	<path fill="#CFCFCF" d="M129.2,0.7c-0.7,0-1.3,0.2-1.8,0.8s-0.8,1.3-0.8,2s0.2,1.5,0.8,2c0.5,0.6,1,0.8,1.8,0.8
		c0.8,0,1.4-0.2,1.9-0.8c0.5-0.5,0.8-1.3,0.8-2s-0.2-1.5-0.8-2C130.5,1,129.9,0.7,129.2,0.7z"/>
	<path fill="#CFCFCF" d="M101.5,6.4c0.7,0,1.4-0.2,2-0.8c0.5-0.5,0.8-1.3,0.8-2s-0.3-1.5-0.8-2s-1.1-0.8-2-0.8c-0.7,0-1.4,0.2-2,0.8
		c-0.5,0.5-0.8,1.3-0.8,2s0.2,1.5,0.8,2C100.1,6.1,100.7,6.4,101.5,6.4z"/>
	<path fill="#BFBFBF" d="M168.2,22.6c-0.6-0.5-1.3-0.9-2-1l-0.5-0.1v-6.5c0-2.2-0.8-4.1-2.2-5.5s-3.2-2.2-5.3-2.2
		c-2,0-3.9,0.8-5.3,2.2c-0.1,0.1-0.1,0.1-0.2,0.2l-0.6,0.6l-0.5-0.5c-1.1-1.3-2.5-2-4.1-2.3l-0.5-0.1V2.5c0-2.1-0.7-4-2-5.4
		c-1.4-1.5-3.1-2.3-5-2.3c-2,0-3.7,0.8-5,2.2l-0.6,0.5L134.3-3c-1.5-1.5-3.3-2.2-5.3-2.2c-1,0-2,0.2-3,0.6l-1,0.5l0.1-1.1
		c0-0.2,0-0.3,0-0.5c0-1.3-0.4-2.3-1.3-3.1c-0.9-0.9-1.9-1.4-3-1.4c-1.1,0-2.2,0.5-3,1.4c-0.8,0.8-1.3,2-1.3,3.1v0.6h-3l-0.2-0.4
		c-0.2-0.5-0.5-0.9-0.8-1.3c-0.7-0.8-1.7-1.3-2.8-1.3c-1.1,0-2.1,0.5-2.8,1.3c-0.5,0.5-0.9,1.3-1,2l-0.2,0.9l-0.8-0.4
		c-1.1-0.6-2.4-0.9-3.8-0.9c-1.5,0-2.8,0.3-3.9,1l-0.7,0.4l-0.2-0.8c-0.3-1.3-0.9-2.4-1.8-3.2c-1.4-1.5-3.1-2.2-5.2-2.2
		c-1,0-2,0.2-2.9,0.6l-0.2,0.1L86-9.3c-0.9-0.4-1.9-0.6-2.9-0.6c-2,0-3.8,0.8-5.2,2.2c-1.4,1.5-2.1,3.3-2.1,5.5V8.1
		c0,1.3,0.4,2.2,1.3,3c0.7,0.7,1.7,1.1,2.8,1.1c1,0,2-0.4,2.8-1.3l0.1-0.1l0.5-0.5l0.5,0.6c0.7,0.8,1.7,1.3,2.8,1.3
		c0.6,0,1.3-0.2,1.8-0.4l0.7-0.3l0.2,0.8c0.3,1.1,0.9,2.2,1.8,3.1c1.4,1.5,3.1,2.2,5.2,2.2h0.1c0.2,0,0.5,0,0.6-0.1l0.6-0.1l0.2,0.6
		c0.3,1.6,1,3,2.2,4.2c1.6,1.6,3.6,2.5,5.7,2.5c2.1,0,4.2-0.8,5.7-2.5c0.1,0,0.6-0.6,0.6-0.6l0.5,0.5c0.1,0.1,0.1,0.1,0.2,0.2
		c1.7,1.6,3.7,2.4,6,2.4c0,0,6.8,0,7.7,0c2,0,3.7-0.7,5-2c0.3-0.3,0.6-0.6,0.8-0.9l0.8-1.3l0.3,1.4c0.2,0.6,0.5,1.3,0.9,1.7
		c0.7,0.8,1.7,1.3,2.8,1.3c0.1,0,0.2,0,0.2,0l1-0.1l-0.3,0.9c-0.3,0.9-0.5,2-0.5,3.1c0,2.4,0.8,4.5,2.5,6.2c1.6,1.7,3.7,2.5,6,2.5
		c2.3,0,4.4-0.9,5.5-2.6c1.6-1.7,2.5-3.9,2.5-6.2c0-1-0.3-2-0.9-2.7l-0.3-0.3l0.2-0.4c0.1-0.1,0.1-0.2,0.2-0.2l0.2-0.4l0.5,0.1
		c0.2,0.1,0.3,0.1,0.6,0.1c0.9,0,1.7-0.2,2.3-0.6l0.8-0.5l0.2,0.9c0.3,1.3,1,2.4,2,3.3c1.5,1.4,3.2,2.2,5.3,2.2h0.1
		c1,0,2-0.4,2.8-1.1c0.8-0.8,1.3-1.9,1.3-3.1C169.4,24.4,169,23.3,168.2,22.6z M119.8-7.1c0.3-0.3,0.8-0.5,1.3-0.5
		c0.5,0,0.9,0.2,1.3,0.5c0.3,0.4,0.5,0.9,0.5,1.4s-0.2,0.9-0.5,1.4c-0.3,0.3-0.8,0.5-1.3,0.5c-0.5,0-0.9-0.3-1.3-0.6
		c-0.3-0.4-0.5-0.9-0.5-1.4C119.3-6.2,119.4-6.7,119.8-7.1z M122.5-0.9v9c0,0.5-0.2,0.8-0.4,1.1c-0.2,0.3-0.6,0.5-1,0.5
		c-0.4,0-0.8-0.2-1-0.5c-0.2-0.2-0.4-0.6-0.4-1.1v-9c0-0.5,0.2-0.8,0.4-1.1c0.2-0.3,0.6-0.5,1-0.5C121.9-2.6,122.6-2,122.5-0.9z
		 M97.4-0.9c1.1-1.3,2.5-1.8,4.2-1.8s3,0.6,4.2,1.8c1,1.3,1.7,2.6,1.7,4.4c0,1.7-0.5,3.1-1.7,4.4c-1.1,1.3-2.5,1.8-4.2,1.8
		s-3-0.6-4.2-1.8c-1-1.3-1.7-2.6-1.7-4.4C95.7,1.7,96.2,0.3,97.4-0.9z M97.5,14.4c-0.2,0.3-0.6,0.5-1,0.5h-0.1
		c-1.4,0-2.5-0.5-3.5-1.5c-0.9-0.9-1.4-2.2-1.4-3.7V-2.3c0-0.5-0.2-0.9-0.5-1.4c-0.3-0.3-0.8-0.6-1.3-0.6c-0.6,0-1,0.2-1.5,0.8V8
		c0,0.5-0.1,0.8-0.4,1.1c-0.2,0.3-0.6,0.5-1,0.5c-0.4,0-0.8-0.2-1-0.5c-0.2-0.2-0.4-0.6-0.4-1.1V-2.3c0-0.5-0.2-0.9-0.6-1.4
		C84.5-4,84-4.2,83.4-4.2c-0.6,0-0.9,0.2-1.3,0.6c-0.3,0.4-0.5,0.9-0.5,1.4V8.1c0,0.5-0.2,0.8-0.4,1.1c-0.2,0.3-0.6,0.5-1,0.5
		c-0.4,0-0.8-0.2-1.1-0.5c-0.2-0.2-0.4-0.6-0.4-1.1V-2.3c0-1.5,0.5-2.7,1.4-3.7c0.9-0.9,2-1.5,3.5-1.5c1.3,0,2.2,0.4,3.1,1.3
		c0.9-0.8,2-1.3,3.1-1.3c1.4,0,2.5,0.5,3.5,1.5c0.9,0.9,1.4,2.2,1.4,3.7V9.7c0,0.6,0.2,1,0.5,1.4c0.3,0.3,0.8,0.6,1.3,0.6h-0.1
		c0.5,0,0.8,0.1,1,0.4c0.2,0.3,0.4,0.7,0.4,1.3C97.9,13.8,97.8,14.1,97.5,14.4z M111.7,9.3V16c0,1.6-0.5,3.1-1.7,4.3
		c-1.1,1.3-2.5,1.8-4.2,1.8c-1.7,0-2.9-0.6-4.1-1.8c-1-1.1-1.6-2.6-1.6-4.3s0.6-3.1,1.7-4.4c1.1-1.3,2.5-1.8,4.2-1.8
		c0.5,0,0.8,0.2,1.1,0.5c0.2,0.3,0.4,0.7,0.4,1.3c0,0.5-0.1,0.8-0.4,1.1c-0.3,0.3-0.6,0.5-1.1,0.5c-0.7,0-1.4,0.2-2,0.8
		c-0.5,0.5-0.8,1.3-0.8,2s0.2,1.5,0.8,2c0.5,0.6,1.1,0.8,2,0.8c0.9,0,1.5-0.2,2-0.8c0.5-0.6,0.8-1.3,0.8-2V6.6c0-0.2,0-1.7,0-2.1
		v-8.2c0-0.5,0.2-0.9,0.4-1.3c0.2-0.3,0.6-0.5,1-0.5c0.4,0,0.8,0.2,1,0.5c0.2,0.3,0.4,0.7,0.4,1.3v1.3h5.2c0.5,0,0.8,0.2,1,0.5
		c0.2,0.2,0.4,0.6,0.4,1.1c0,1-0.5,1.6-1.5,1.6h-5.2v3.8c0,0.5,0.2,0.9,0.5,1.4c0.3,0.3,0.8,0.5,1.3,0.5c0.5,0,0.9-0.2,1.3-0.5
		c0.3-0.3,0.5-0.8,0.5-1.4V4.3c0-0.5,0.2-0.8,0.5-1.1c0.2-0.3,0.6-0.5,1-0.5c0.4,0,0.8,0.2,1,0.5c0.5,0.3,0.7,0.6,0.7,1.1v0.2
		c0,1.5-0.5,2.7-1.4,3.7c-0.9,0.9-2.1,1.5-3.5,1.5C112.9,9.6,112.2,9.4,111.7,9.3z M133.9,12.7c-0.3,0.2-0.8,0.4-1.3,0.5
		c-0.5,0.1-0.9,0.2-1.3,0.5c-0.3,0.2-0.5,0.6-0.5,0.9v2.8c0,1.3-0.5,2.4-1.6,3.3c-0.3,0.2-0.6,0.5-0.9,0.6c-0.1,0.1-0.1,0.1-0.1,0.1
		c-0.6,0.3-2,0.7-2.4,0.7h-7.3c-1.6,0-2.9-0.6-4.1-1.8c-1-1.3-1.7-2.6-1.7-4.4s0.5-3.1,1.7-4.4c1-1.3,2.4-1.8,4.1-1.8
		c1.7,0,2.9,0.6,4.1,1.9c0.3,0.3,0.5,0.6,0.5,1c0,0.5-0.2,0.9-0.6,1.3l-2.8,3c-0.3,0.3-0.6,0.5-1,0.5c-0.4,0-0.8-0.2-1-0.5
		c-0.3-0.3-0.5-0.7-0.5-1.3c0-0.4,0.2-0.8,0.5-1.1l1.6-1.7c-0.2-0.1-0.3-0.1-0.5-0.1c-0.7,0-1.4,0.2-1.9,0.8c-0.5,0.6-0.8,1.3-0.8,2
		c0,0.8,0.2,1.5,0.8,2c0.5,0.6,1.1,0.8,1.9,0.8h7.1c0.5,0,0.9-0.2,1.3-0.5c0.3-0.2,0.5-0.6,0.5-1c0-0.2,0-0.3,0-0.5
		c0.1-0.6,0.1-0.9,0.1-0.9v-1.3c0-1.3,0.5-2.4,1.5-3.3c1-0.9,2.3-1.4,3.9-1.4c0.5,0,0.9,0.2,1.3,0.5c0.3,0.3,0.5,0.6,0.5,1.3
		C134.4,12,134.2,12.4,133.9,12.7z M133.1,7.9c-1,1.3-2.4,1.8-3.9,1.8s-2.8-0.6-3.9-1.8s-1.7-2.6-1.7-4.4s0.6-3.1,1.7-4.4
		s2.4-1.8,3.9-1.8s2.9,0.5,3.9,1.8c1,1.3,1.6,2.6,1.6,4.4C134.7,5.3,134.1,6.7,133.1,7.9z M138.8,20.4c0,0.5-0.2,0.8-0.4,1.1
		c-0.3,0.3-0.6,0.5-1,0.5c-0.5,0-0.8-0.2-1-0.5c-0.2-0.2-0.4-0.6-0.4-1.1v-9c0-0.5,0.2-0.8,0.4-1.1c0.3-0.3,0.6-0.5,1-0.5
		c0.9,0,1.5,0.6,1.5,1.7L138.8,20.4L138.8,20.4z M167,26.9c-0.3,0.3-0.7,0.5-1.3,0.5h-0.1c-1.5,0-2.7-0.5-3.7-1.5
		c-0.9-0.9-1.5-2.2-1.5-3.7v-1v-6.1c0-0.5-0.2-0.9-0.6-1.4c-0.3-0.5-0.8-0.6-1.4-0.6c-0.6,0-0.9,0.2-1.4,0.6
		c-0.3,0.3-0.6,0.8-0.6,1.4v5.3c0,0.1,0,0.2,0,0.2c0,0.8-0.6,1.5-1.4,1.6c-0.8,0.1-1.9,0.1-3.1,0.1c-0.1,0.9-0.5,1.8-1.1,2.5
		c-0.8,0.8-1.8,1.3-2.8,1.3h-2c-0.8,0-1.5,0.2-2,0.8c-0.5,0.5-0.8,1.3-0.8,2c0,0.8,0.2,1.5,0.8,2c0.6,0.6,1.3,0.8,2,0.8
		c0.8,0,1.5-0.2,2-0.8c0.6-0.5,0.8-1.3,0.8-2c0-0.5,0.2-0.8,0.5-1.1c0.3-0.3,0.6-0.5,1.1-0.5c0.5,0,0.8,0.2,1.1,0.5
		c0.2,0.3,0.4,0.7,0.4,1.3c0,1.6-0.6,3.1-1.8,4.3s-2.6,1.8-4.3,1.8c-1.7,0-3.1-0.5-4.3-1.8c-1.3-1.1-1.8-2.6-1.8-4.3
		c0-1.7,0.6-3.1,1.8-4.4c1.1-1.3,2.5-1.8,4.2-1.8h2c0.2,0,0.4-0.1,0.6-0.2c0.1-0.1,0.1-0.2,0.2-0.2c-1.5-0.1-2.6-0.1-2.8-0.1
		c-1.7,0-3.1-0.6-4.3-1.8c-1.3-1.3-1.8-2.6-1.8-4.4s0.6-3.1,1.8-4.4c0.1-0.2,0.2-0.2,0.3-0.3c0-0.1-0.1-8.7-0.1-8.7
		c0-0.5-0.2-0.9-0.5-1.4c-0.3-0.3-0.7-0.5-1.3-0.5c-0.5,0-0.9,0.2-1.3,0.5c-0.3,0.3-0.5,0.8-0.5,1.4V8c0,0.5-0.2,0.8-0.4,1.1
		s-0.6,0.5-1,0.5c-0.4,0-0.8-0.2-1-0.5c-0.2-0.2-0.4-0.6-0.4-1.1V2.6c0-1.4,0.5-2.6,1.4-3.7c0.9-0.9,2-1.5,3.2-1.5
		c1.4,0,2.4,0.5,3.3,1.5c0.9,0.9,1.4,2.2,1.4,3.7v7.2c0,0.1,0,0.2,0,0.2c0.3-0.1,0.6-0.1,1-0.1c1.7,0,3.1,0.6,4.3,1.8
		c1.3,1.3,1.8,2.6,1.8,4.4V19c0.5,0,0.9,0,1.3,0v-3.9c0-1.5,0.5-2.7,1.5-3.7c0.9-0.9,2.2-1.5,3.7-1.5c1.4,0,2.6,0.5,3.7,1.5
		s1.5,2.2,1.5,3.7v7.1c0,0.5,0.2,0.9,0.6,1.4c0.3,0.3,0.8,0.6,1.4,0.6h0.1c0.5,0,0.9,0.2,1.3,0.5c0.3,0.3,0.5,0.6,0.5,1.3
		C167.4,26.1,167.3,26.6,167,26.9z"/>
</g>
<g id="troquel_1_">
</g>
</svg>
