<?xml version="1.0" encoding="utf-8"?>
<!-- Generator: Adobe Illustrator 18.0.0, SVG Export Plug-In . SVG Version: 6.00 Build 0)  -->
<!DOCTYPE svg PUBLIC "-//W3C//DTD SVG 1.1//EN" "http://www.w3.org/Graphics/SVG/1.1/DTD/svg11.dtd">
<svg version="1.1" xmlns="http://www.w3.org/2000/svg" xmlns:xlink="http://www.w3.org/1999/xlink" x="0px" y="0px"
	 viewBox="0 0 200 92.5" enable-background="new 0 0 200 92.5" xml:space="preserve">
<g id="Layer_1">
	<path fill="#0D0D0D" d="M145,92.5c-4.4,0-8.4-1.7-11.5-4.8c-3.2-3.2-4.8-7.3-4.8-11.9c0-2.1,0.4-4.2,1.1-6.1l0.7-1.9l-2,0.2
		c-0.2,0-0.3,0-0.5,0c-2.1,0-4-0.8-5.4-2.4c-0.8-0.9-1.4-2-1.8-3.2l-0.7-2.7l-1.6,2.3c-0.5,0.7-1,1.3-1.6,1.9c-2.6,2.6-5.9,4-9.6,4
		c-1.7,0-14.9,0-14.9,0c-4.5,0-8.4-1.5-11.5-4.6c-0.1-0.1-0.2-0.2-0.3-0.3l-1-1.1c0,0-1.1,1.3-1.2,1.3c-3,3.2-6.9,4.8-11.2,4.8
		c-4.3,0-8.2-1.7-11.2-4.8c-2.2-2.3-3.6-5-4.2-8.1l-0.3-1.2L50.2,54c-0.4,0.1-0.8,0.1-1.3,0.1h-0.2c-3.9,0-7.3-1.5-10-4.3
		c-1.6-1.7-2.8-3.7-3.4-5.9l-0.5-1.5l-1.4,0.7c-1.1,0.5-2.2,0.8-3.5,0.8c-2.1,0-4-0.8-5.4-2.3l-0.9-1.1l-1.1,1l-0.2,0.2
		c-1.4,1.5-3.3,2.3-5.4,2.3c-2.1,0-4-0.8-5.4-2.2c-1.5-1.5-2.3-3.5-2.3-5.8V16.1c0-4.1,1.4-7.8,4.1-10.6c2.7-2.8,6.1-4.3,10-4.3
		c2,0,3.8,0.4,5.6,1.2l0.5,0.2l0.5-0.2c1.7-0.8,3.6-1.2,5.6-1.2c3.9,0,7.3,1.5,10,4.3c1.7,1.8,2.9,3.9,3.5,6.3l0.4,1.6l1.4-0.8
		c2.3-1.3,4.8-2,7.6-2c2.6,0,5,0.6,7.2,1.8l1.5,0.8l0.3-1.7c0.3-1.5,1-2.9,2-4c1.4-1.5,3.3-2.4,5.5-2.4c2.1,0,4,0.8,5.4,2.3
		c0.7,0.7,1.2,1.5,1.6,2.4l0.3,0.8h5.6l0-1.3c0-2.3,0.8-4.4,2.3-6c1.6-1.7,3.6-2.7,5.8-2.7c2.2,0,4.3,0.9,5.8,2.7
		c1.5,1.7,2.3,3.8,2.3,6.1c0,0.3,0,0.6,0,0.9l-0.2,2.2l2-0.9c1.8-0.8,3.8-1.2,5.8-1.2c4,0,7.5,1.5,10.4,4.3l0.9,0.9l0.9-1
		c2.6-2.8,5.9-4.3,9.6-4.3c3.8,0,7.1,1.5,9.7,4.4c2.5,2.8,3.9,6.4,3.9,10.5v9.2l1,0.2c3,0.7,5.6,2.1,7.8,4.4l1,1l1.1-1.2
		c0.1-0.1,0.2-0.2,0.3-0.3c2.7-2.7,6.3-4.2,10.2-4.2c3.9,0,7.5,1.5,10.2,4.2c2.8,2.8,4.3,6.5,4.3,10.7v12.5l1,0.2
		c1.4,0.3,2.6,1,3.7,2c1.5,1.5,2.3,3.6,2.3,5.9c0,2.3-0.8,4.4-2.4,5.9c-1.5,1.4-3.3,2.2-5.4,2.2h-0.2c-4,0-7.5-1.5-10.3-4.2
		c-1.8-1.8-3.1-4-3.8-6.5l-0.5-1.8l-1.5,1c-1.3,0.9-2.7,1.3-4.4,1.3c-0.4,0-0.8,0-1.1-0.1l-0.9-0.1l-0.4,0.8
		c-0.1,0.2-0.2,0.4-0.3,0.5l-0.5,0.8l0.6,0.7c1.1,1.4,1.7,3.2,1.7,5.2c0,4.6-1.7,8.7-4.8,11.9C153.4,90.8,149.4,92.5,145,92.5z"/>
	<g>
		<path fill="#FFFFFF" d="M96.5,15.4c-0.8,0-1.5,0.3-2,0.9c-0.5,0.6-0.8,1.3-0.8,2.2v17.3c0,0.9,0.3,1.7,0.8,2.2
			c0.5,0.6,1.2,0.9,2,0.9c0.8,0,1.5-0.3,2-0.9c0.5-0.6,0.8-1.3,0.8-2.2V18.5C99.4,16.4,98.4,15.4,96.5,15.4z"/>
		<path fill="#FFFFFF" d="M49,42.8h-0.2c-1,0-1.8-0.4-2.5-1.1c-0.7-0.7-1-1.6-1-2.7V15.9c0-2.8-0.9-5.2-2.7-7.1
			c-1.8-1.9-4-2.9-6.7-2.9c-2.3,0-4.4,0.8-6.1,2.4c-1.8-1.6-3.8-2.4-6.1-2.4c-2.7,0-4.9,1-6.7,2.9c-1.8,1.9-2.7,4.3-2.7,7.1v19.9
			c0,0.9,0.3,1.7,0.8,2.2c0.6,0.6,1.3,0.9,2.2,0.9c0.9,0,1.6-0.3,2.1-0.9c0.5-0.6,0.8-1.3,0.8-2.2V15.9c0-1,0.3-1.9,1-2.7
			c0.7-0.7,1.5-1.1,2.5-1.1c1,0,1.8,0.4,2.5,1.1c0.7,0.7,1.1,1.6,1.1,2.6v19.9c0,0.9,0.3,1.7,0.8,2.2c0.5,0.6,1.2,0.9,2.1,0.9
			c0.9,0,1.6-0.3,2.1-0.9c0.6-0.6,0.8-1.3,0.8-2.2V13.6c0.7-1,1.6-1.5,2.8-1.5c1,0,1.8,0.4,2.5,1.1c0.7,0.7,1,1.6,1,2.6V39
			c0,2.8,0.9,5.2,2.7,7.1c1.8,1.9,4.1,2.9,6.7,2.9H49c0.9,0,1.6-0.3,2.1-0.9c0.6-0.6,0.8-1.3,0.8-2.2c0-0.9-0.3-1.7-0.8-2.3
			C50.6,43,49.9,42.8,49,42.8z"/>
		<path fill="#FFFFFF" d="M58.9,38.9c3.2,0,5.8-1.1,8-3.4c2.2-2.3,3.2-5.1,3.2-8.4c0-3.3-1.1-6.1-3.2-8.4c-2.2-2.3-4.8-3.4-8-3.4
			c-3.2,0-5.8,1.1-8,3.4c-2.1,2.3-3.2,5-3.2,8.4c0,3.3,1.1,6.1,3.2,8.4C53.1,37.8,55.7,38.9,58.9,38.9z M55.1,23.2
			c1-1.1,2.3-1.6,3.7-1.6c1.5,0,2.7,0.5,3.7,1.6c1,1.1,1.6,2.4,1.6,3.9c0,1.5-0.5,2.9-1.6,3.9c-1,1.1-2.3,1.6-3.7,1.6
			c-1.5,0-2.7-0.5-3.7-1.6c-1-1.1-1.5-2.4-1.5-3.9C53.6,25.6,54.1,24.3,55.1,23.2z"/>
		<path fill="#FFFFFF" d="M96.5,13.2c0.9,0,1.8-0.4,2.4-1.1c0.7-0.8,1-1.6,1-2.7c0-1-0.3-1.9-1-2.7c-0.7-0.7-1.5-1.1-2.4-1.1
			c-0.9,0-1.7,0.4-2.4,1.1c-0.7,0.8-1,1.7-1,2.7c0,1,0.3,1.9,1,2.7C94.8,12.8,95.6,13.2,96.5,13.2z"/>
		<path fill="#FFFFFF" d="M112.2,15.4c-3,0-5.5,1.1-7.5,3.4c-2,2.3-3.1,5-3.1,8.4c0,3.3,1,6.1,3.1,8.4c2,2.3,4.5,3.4,7.5,3.4
			c3,0,5.5-1.1,7.6-3.4c2-2.3,3.1-5.1,3.1-8.4c0-3.3-1-6.1-3.1-8.4C117.8,16.5,115.2,15.4,112.2,15.4z M115.8,31.1
			c-1,1.1-2.2,1.6-3.6,1.6c-1.4,0-2.6-0.5-3.5-1.6c-1-1.1-1.5-2.4-1.5-3.9c0-1.5,0.5-2.8,1.5-3.9c1-1.1,2.1-1.6,3.5-1.6
			c1.4,0,2.6,0.5,3.6,1.6c1,1.1,1.5,2.4,1.5,3.9C117.3,28.7,116.8,30,115.8,31.1z"/>
		<path fill="#FFFFFF" d="M88.7,36c1.8-1.9,2.7-4.3,2.7-7.1v-0.4c0-0.9-0.3-1.6-0.8-2.2c-0.6-0.6-1.3-0.9-2.1-0.9
			c-0.9,0-1.6,0.3-2.1,0.9c-0.6,0.6-0.9,1.3-0.9,2.2v0.4c0,1-0.3,1.9-1,2.6c-0.7,0.7-1.5,1.1-2.5,1.1c-1,0-1.8-0.4-2.5-1.1
			c-0.7-0.7-1-1.6-1-2.6v-7.2h10c2,0,2.9-1,2.9-3.1c0-0.9-0.3-1.7-0.8-2.2c-0.5-0.6-1.2-0.9-2.1-0.9h-10V13c0-0.9-0.3-1.7-0.8-2.3
			c-0.6-0.6-1.3-0.9-2.1-0.9c-0.9,0-1.6,0.3-2.1,0.9c-0.5,0.6-0.8,1.3-0.8,2.3v15.9c0,0.9,0,3.6,0,4.1V51c0,1.5-0.5,2.8-1.6,3.9
			c-1,1.1-2.3,1.6-3.8,1.6c-1.5,0-2.7-0.5-3.7-1.6c-1-1.1-1.5-2.4-1.5-3.9c0-1.5,0.5-2.9,1.5-3.9c1-1.1,2.3-1.6,3.7-1.6
			c0.9,0,1.6-0.3,2.2-0.9c0.6-0.6,0.8-1.3,0.8-2.2c0-0.9-0.3-1.7-0.8-2.3c-0.6-0.6-1.3-0.9-2.2-0.9c-3.2,0-5.8,1.1-8,3.4
			C57.1,44.9,56,47.7,56,51c0,3.3,1.1,6.1,3.2,8.3c2.2,2.3,4.8,3.4,7.9,3.4c3.1,0,5.8-1.1,8-3.4c2.2-2.3,3.3-5.1,3.3-8.3V38.2
			c1.1,0.4,2.3,0.6,3.5,0.6C84.6,38.8,86.9,37.9,88.7,36z"/>
		<path fill="#FFFFFF" d="M128,39.3c-0.8,0-1.5,0.3-2.1,0.9c-0.5,0.6-0.8,1.3-0.8,2.2v17.3c0,0.9,0.3,1.7,0.8,2.2
			c0.5,0.6,1.2,0.9,2.1,0.9c0.8,0,1.5-0.3,2.1-0.9c0.5-0.6,0.8-1.3,0.8-2.2V42.4C130.9,40.4,129.9,39.3,128,39.3z"/>
		<path fill="#FFFFFF" d="M185.1,67.6c-0.6-0.6-1.3-0.9-2.3-0.9h-0.2c-1,0-1.9-0.4-2.6-1.1c-0.7-0.7-1.1-1.6-1.1-2.6V49.3
			c0-2.8-1-5.2-2.9-7.1c-1.9-1.9-4.3-2.9-7-2.9c-2.8,0-5.1,1-7,2.9c-1.9,1.9-2.9,4.3-2.9,7.1v7.5c-0.8,0-1.6,0-2.5,0v-5.6
			c0-3.3-1.1-6.1-3.4-8.4c-2.2-2.3-5-3.4-8.3-3.4c-0.7,0-1.3,0.1-2,0.2c0-0.2,0-0.3,0-0.5V25.3c0-2.8-0.9-5.2-2.6-7
			c-1.7-1.9-3.8-2.9-6.4-2.9c-2.5,0-4.6,1-6.3,2.9c-1.7,1.9-2.6,4.3-2.6,7v10.5c0,0.9,0.3,1.7,0.8,2.2c0.5,0.6,1.2,0.9,2,0.9
			c0.8,0,1.5-0.3,2-0.9c0.5-0.6,0.8-1.3,0.8-2.2V25.3c0-1,0.3-1.9,1-2.6c0.7-0.7,1.4-1.1,2.4-1.1c0.9,0,1.7,0.4,2.3,1.1
			c0.6,0.7,1,1.6,1,2.6c0,0,0.1,16.7,0.1,16.8c-0.2,0.2-0.5,0.4-0.7,0.7c-2.2,2.3-3.4,5-3.4,8.4c0,3.3,1.1,6.1,3.4,8.4
			c2.2,2.3,5,3.4,8.3,3.4c0.3,0,2.5,0,5.3,0.1c-0.1,0.1-0.1,0.2-0.3,0.4c-0.3,0.3-0.7,0.5-1.1,0.5h-4c-3.3,0-6,1.1-8.2,3.4
			c-2.2,2.3-3.4,5.1-3.4,8.4c0,3.3,1.1,6.1,3.4,8.3c2.3,2.3,5,3.4,8.3,3.4c3.3,0,6-1.1,8.3-3.4c2.3-2.3,3.4-5.1,3.4-8.3
			c0-0.9-0.3-1.7-0.8-2.3c-0.6-0.6-1.3-0.9-2.2-0.9c-0.9,0-1.6,0.3-2.2,0.9c-0.6,0.6-0.9,1.3-0.9,2.2c0,1.5-0.5,2.8-1.6,3.9
			c-1.1,1.1-2.4,1.6-3.9,1.6c-1.5,0-2.8-0.5-3.9-1.6c-1.1-1.1-1.6-2.4-1.6-3.9c0-1.5,0.5-2.9,1.6-3.9c1.1-1.1,2.4-1.6,3.9-1.6h3.9
			c2.1,0,4-0.8,5.5-2.3c1.3-1.3,2.1-2.9,2.2-4.8c2.4,0,4.5,0,6-0.1c0,0,0,0,0,0c1.5-0.2,2.7-1.4,2.7-3c0-0.2,0-0.3,0-0.5
			c0,0,0,0,0,0V49.3c0-1,0.4-1.9,1.1-2.6c0.7-0.7,1.6-1.1,2.6-1.1c1,0,1.9,0.4,2.6,1.1c0.7,0.7,1.1,1.6,1.1,2.6l0,11.6V63
			c0,2.8,0.9,5.2,2.8,7.1c1.9,1.9,4.2,2.9,7.1,2.9h0.2c0.9,0,1.7-0.3,2.3-0.9c0.6-0.6,0.9-1.3,0.9-2.2
			C186,68.9,185.7,68.2,185.1,67.6z M150.5,56.7c-2.9,0-5.2,0-5.5,0c-1.5,0-2.8-0.5-3.9-1.6c-1.1-1.1-1.6-2.4-1.6-3.9
			c0-1.5,0.5-2.8,1.6-3.9c1.1-1.1,2.4-1.6,3.9-1.6c1.5,0,2.8,0.5,3.9,1.6c1.1,1.1,1.6,2.4,1.6,3.9V56.7z"/>
		<path fill="#FFFFFF" d="M121.3,40.2c-0.7-0.6-1.5-0.9-2.5-0.9c-2.9,0-5.3,0.9-7.3,2.6c-2,1.7-2.9,3.9-2.9,6.4v2.5
			c0,0,0,0.7-0.1,1.9c0,0.3,0,0.6,0,0.9c0,0.8-0.3,1.5-0.9,2c-0.6,0.5-1.4,1-2.3,1H91.7c-1.4,0-2.6-0.5-3.6-1.6
			c-1-1.1-1.5-2.4-1.5-3.9c0-1.5,0.5-2.8,1.5-3.9c1-1.1,2.2-1.6,3.6-1.6c0.4,0,0.7,0,1.1,0.1l-3.1,3.3c-0.6,0.7-0.9,1.4-0.9,2.2
			c0,0.9,0.3,1.6,0.9,2.3c0.6,0.6,1.3,1,2.1,1c0.7,0,1.4-0.3,2-1l5.5-5.8c0.8-0.7,1.2-1.5,1.2-2.5c0-0.8-0.3-1.5-0.9-2.1
			c-2.2-2.4-4.8-3.6-7.9-3.6c-3.1,0-5.7,1.1-7.8,3.4c-2.1,2.3-3.2,5-3.2,8.4c0,3.3,1.1,6.1,3.2,8.4c2.1,2.3,4.7,3.4,7.8,3.4l14.2,0
			c0.9,0,3.4-0.7,4.6-1.4c0,0,0,0,0.1-0.1c0.7-0.4,1.3-0.8,1.9-1.3c2-1.7,3-3.9,3-6.4l0-5.3c0-0.8,0.3-1.4,0.9-1.9
			c0.6-0.5,1.4-0.8,2.4-0.9c1-0.1,1.8-0.4,2.5-0.9c0.6-0.6,0.9-1.3,0.9-2.2C122.3,41.5,121.9,40.8,121.3,40.2z"/>
	</g>
</g>
<g id="troquel">
</g>
</svg>
