<?xml version="1.0" encoding="utf-8"?>
<!-- Generator: Adobe Illustrator 18.0.0, SVG Export Plug-In . SVG Version: 6.00 Build 0)  -->
<!DOCTYPE svg PUBLIC "-//W3C//DTD SVG 1.1//EN" "http://www.w3.org/Graphics/SVG/1.1/DTD/svg11.dtd">
<svg version="1.1" id="Layer_1" xmlns="http://www.w3.org/2000/svg" xmlns:xlink="http://www.w3.org/1999/xlink" x="0px" y="0px"
	 viewBox="44 -2.5 111.8 58.8" enable-background="new 44 -2.5 111.8 58.8" xml:space="preserve">
<g id="Layer_1_1_">
	<path fill="#0D0D0D" d="M126.8,55c-2.6,0-5-1-6.8-2.9c-1.9-1.9-2.9-4.3-2.9-7.1c0-1.2,0.2-2.5,0.7-3.6l0.4-1.1l-1.2,0.1
		c-0.1,0-0.2,0-0.3,0c-1.2,0-2.4-0.5-3.2-1.4c-0.5-0.5-0.8-1.2-1.1-1.9l-0.4-1.6l-1,1.4c-0.3,0.4-0.6,0.8-1,1.1
		c-1.5,1.5-3.5,2.4-5.7,2.4c-1,0-8.9,0-8.9,0c-2.7,0-5-0.9-6.8-2.7c-0.1-0.1-0.1-0.1-0.2-0.2l-0.6-0.7c0,0-0.7,0.8-0.7,0.8
		c-1.8,1.9-4.1,2.9-6.7,2.9s-4.9-1-6.7-2.9c-1.3-1.4-2.1-3-2.5-4.8L71.2,32l-0.8,0.1c-0.2,0.1-0.5,0.1-0.8,0.1h-0.1
		c-2.3,0-4.3-0.9-5.9-2.6c-1-1-1.7-2.2-2-3.5l-0.3-0.9l-0.8,0.4c-0.7,0.3-1.3,0.5-2.1,0.5c-1.2,0-2.4-0.5-3.2-1.4l-0.5-0.7l-0.7,0.6
		l-0.1,0.1c-0.8,0.9-2,1.4-3.2,1.4c-1.2,0-2.4-0.5-3.2-1.3C46.5,24,46,22.8,46,21.4V9.6c0-2.4,0.8-4.6,2.4-6.3
		c1.6-1.7,3.6-2.6,5.9-2.6c1.2,0,2.3,0.2,3.3,0.7L58,1.5l0.3-0.1c1-0.5,2.1-0.7,3.3-0.7c2.3,0,4.3,0.9,5.9,2.6
		c1,1.1,1.7,2.3,2.1,3.7l0.2,1l0.8-0.5c1.4-0.8,2.9-1.2,4.5-1.2c1.5,0,3,0.4,4.3,1.1l0.9,0.5l0.2-1c0.2-0.9,0.6-1.7,1.2-2.4
		c0.8-0.9,2-1.4,3.3-1.4c1.2,0,2.4,0.5,3.2,1.4c0.4,0.4,0.7,0.9,1,1.4l0.2,0.5h3.3V5.5c0-1.4,0.5-2.6,1.4-3.6c1-1,2.1-1.6,3.4-1.6
		s2.6,0.5,3.4,1.6c0.9,1,1.4,2.3,1.4,3.6c0,0.2,0,0.4,0,0.5l-0.1,1.3l1.2-0.5c1.1-0.5,2.3-0.7,3.4-0.7c2.4,0,4.5,0.9,6.2,2.6
		l0.5,0.5l0.5-0.6c1.5-1.7,3.5-2.6,5.7-2.6c2.3,0,4.2,0.9,5.8,2.6c1.5,1.7,2.3,3.8,2.3,6.2v5.5l0.6,0.1c1.8,0.4,3.3,1.2,4.6,2.6
		l0.6,0.6l0.7-0.7c0.1-0.1,0.1-0.1,0.2-0.2c1.6-1.6,3.7-2.5,6.1-2.5c2.3,0,4.5,0.9,6.1,2.5c1.7,1.7,2.6,3.9,2.6,6.4v7.4l0.6,0.1
		c0.8,0.2,1.5,0.6,2.2,1.2c0.9,0.9,1.4,2.1,1.4,3.5c0,1.4-0.5,2.6-1.4,3.5c-0.9,0.8-2,1.3-3.2,1.3h-0.1c-2.4,0-4.5-0.9-6.1-2.5
		c-1.1-1.1-1.8-2.4-2.3-3.9l-0.3-1.1l-0.9,0.6c-0.8,0.5-1.6,0.8-2.6,0.8c-0.2,0-0.5,0-0.7-0.1l-0.5-0.1l-0.2,0.5
		c-0.1,0.1-0.1,0.2-0.2,0.3l-0.3,0.5l0.4,0.4c0.7,0.8,1,1.9,1,3.1c0,2.7-1,5.2-2.9,7.1C131.8,54,129.4,55,126.8,55z"/>
	<g>
		<path fill="#FFFFFF" d="M97.9,9.2c-0.5,0-0.9,0.2-1.2,0.5c-0.3,0.4-0.5,0.8-0.5,1.3v10.3c0,0.5,0.2,1,0.5,1.3
			c0.3,0.4,0.7,0.5,1.2,0.5s0.9-0.2,1.2-0.5c0.3-0.4,0.5-0.8,0.5-1.3V11C99.6,9.8,99,9.2,97.9,9.2z"/>
		<path fill="#FFFFFF" d="M69.7,25.4h-0.1c-0.6,0-1.1-0.2-1.5-0.7c-0.4-0.4-0.6-1-0.6-1.6V9.5c0-1.7-0.5-3.1-1.6-4.2
			c-1.1-1.1-2.4-1.7-4-1.7c-1.4,0-2.6,0.5-3.6,1.4c-1.1-1-2.3-1.4-3.6-1.4c-1.6,0-2.9,0.6-4,1.7S49,7.8,49,9.5v11.8
			c0,0.5,0.2,1,0.5,1.3c0.4,0.4,0.8,0.5,1.3,0.5c0.5,0,1-0.2,1.2-0.5c0.3-0.4,0.5-0.8,0.5-1.3V9.5c0-0.6,0.2-1.1,0.6-1.6
			c0.4-0.4,0.9-0.7,1.5-0.7c0.6,0,1.1,0.2,1.5,0.7c0.4,0.4,0.7,1,0.7,1.5v11.8c0,0.5,0.2,1,0.5,1.3c0.3,0.4,0.7,0.5,1.2,0.5
			c0.5,0,1-0.2,1.2-0.5c0.4-0.4,0.5-0.8,0.5-1.3V8.1c0.4-0.6,1-0.9,1.7-0.9c0.6,0,1.1,0.2,1.5,0.7c0.4,0.4,0.6,1,0.6,1.5v13.8
			c0,1.7,0.5,3.1,1.6,4.2c1.1,1.1,2.4,1.7,4,1.7h0.1c0.5,0,1-0.2,1.2-0.5c0.4-0.4,0.5-0.8,0.5-1.3c0-0.5-0.2-1-0.5-1.4
			C70.6,25.6,70.2,25.4,69.7,25.4z"/>
		<path fill="#FFFFFF" d="M75.6,23.1c1.9,0,3.4-0.7,4.8-2c1.3-1.4,1.9-3,1.9-5s-0.7-3.6-1.9-5c-1.3-1.4-2.9-2-4.8-2s-3.4,0.7-4.8,2
			c-1.2,1.4-1.9,3-1.9,5c0,2,0.7,3.6,1.9,5C72.1,22.5,73.7,23.1,75.6,23.1z M73.3,13.8c0.6-0.7,1.4-1,2.2-1c0.9,0,1.6,0.3,2.2,1
			c0.6,0.7,1,1.4,1,2.3c0,0.9-0.3,1.7-1,2.3c-0.6,0.7-1.4,1-2.2,1c-0.9,0-1.6-0.3-2.2-1c-0.6-0.7-0.9-1.4-0.9-2.3
			C72.4,15.2,72.7,14.4,73.3,13.8z"/>
		<path fill="#FFFFFF" d="M97.9,7.8c0.5,0,1.1-0.2,1.4-0.7c0.4-0.5,0.6-1,0.6-1.6c0-0.6-0.2-1.1-0.6-1.6c-0.4-0.4-0.9-0.7-1.4-0.7
			c-0.5,0-1,0.2-1.4,0.7c-0.4,0.5-0.6,1-0.6,1.6s0.2,1.1,0.6,1.6C96.9,7.6,97.4,7.8,97.9,7.8z"/>
		<path fill="#FFFFFF" d="M107.3,9.2c-1.8,0-3.3,0.7-4.5,2c-1.2,1.4-1.8,3-1.8,5c0,2,0.6,3.6,1.8,5c1.2,1.4,2.7,2,4.5,2
			s3.3-0.7,4.5-2c1.2-1.4,1.8-3,1.8-5s-0.6-3.6-1.8-5C110.6,9.8,109,9.2,107.3,9.2z M109.4,18.5c-0.6,0.7-1.3,1-2.1,1
			c-0.8,0-1.5-0.3-2.1-1c-0.6-0.7-0.9-1.4-0.9-2.3c0-0.9,0.3-1.7,0.9-2.3c0.6-0.7,1.2-1,2.1-1c0.8,0,1.5,0.3,2.1,1
			c0.6,0.7,0.9,1.4,0.9,2.3C110.3,17.1,110,17.8,109.4,18.5z"/>
		<path fill="#FFFFFF" d="M93.3,21.4c1.1-1.1,1.6-2.6,1.6-4.2v-0.2c0-0.5-0.2-1-0.5-1.3c-0.4-0.4-0.8-0.5-1.2-0.5
			c-0.5,0-1,0.2-1.2,0.5c-0.4,0.4-0.5,0.8-0.5,1.3v0.2c0,0.6-0.2,1.1-0.6,1.5c-0.4,0.4-0.9,0.7-1.5,0.7c-0.6,0-1.1-0.2-1.5-0.7
			s-0.6-1-0.6-1.5v-4.3h5.9c1.2,0,1.7-0.6,1.7-1.8c0-0.5-0.2-1-0.5-1.3c-0.3-0.4-0.7-0.5-1.2-0.5h-5.9V7.7c0-0.5-0.2-1-0.5-1.4
			C86.4,6,86,5.8,85.5,5.8c-0.5,0-1,0.2-1.2,0.5c-0.3,0.4-0.5,0.8-0.5,1.4v9.5c0,0.5,0,2.1,0,2.4v10.7c0,0.9-0.3,1.7-1,2.3
			c-0.6,0.7-1.4,1-2.3,1s-1.6-0.3-2.2-1c-0.6-0.7-0.9-1.4-0.9-2.3c0-0.9,0.3-1.7,0.9-2.3c0.6-0.7,1.4-1,2.2-1c0.5,0,1-0.2,1.3-0.5
			c0.4-0.4,0.5-0.8,0.5-1.3s-0.2-1-0.5-1.4c-0.4-0.4-0.8-0.5-1.3-0.5c-1.9,0-3.4,0.7-4.8,2c-1.3,1.4-2,3-2,5c0,2,0.7,3.6,1.9,4.9
			c1.3,1.4,2.9,2,4.7,2c1.8,0,3.4-0.7,4.8-2c1.3-1.4,2-3,2-4.9v-7.6c0.7,0.2,1.4,0.4,2.1,0.4C90.8,23.1,92.2,22.5,93.3,21.4z"/>
		<path fill="#FFFFFF" d="M116.6,23.4c-0.5,0-0.9,0.2-1.2,0.5c-0.3,0.4-0.5,0.8-0.5,1.3v10.3c0,0.5,0.2,1,0.5,1.3
			c0.3,0.4,0.7,0.5,1.2,0.5c0.5,0,0.9-0.2,1.2-0.5c0.3-0.4,0.5-0.8,0.5-1.3V25.2C118.4,24,117.8,23.4,116.6,23.4z"/>
		<path fill="#FFFFFF" d="M150.6,40.2c-0.4-0.4-0.8-0.5-1.4-0.5h-0.1c-0.6,0-1.1-0.2-1.5-0.7c-0.4-0.4-0.7-1-0.7-1.5v-8.1
			c0-1.7-0.6-3.1-1.7-4.2c-1.1-1.1-2.6-1.7-4.2-1.7c-1.7,0-3,0.6-4.2,1.7c-1.1,1.1-1.7,2.6-1.7,4.2v4.5c-0.5,0-1,0-1.5,0v-3.3
			c0-2-0.7-3.6-2-5c-1.3-1.4-3-2-4.9-2c-0.4,0-0.8,0.1-1.2,0.1c0-0.1,0-0.2,0-0.3V15c0-1.7-0.5-3.1-1.5-4.2c-1-1.1-2.3-1.7-3.8-1.7
			c-1.5,0-2.7,0.6-3.7,1.7s-1.5,2.6-1.5,4.2v6.2c0,0.5,0.2,1,0.5,1.3c0.3,0.4,0.7,0.5,1.2,0.5s0.9-0.2,1.2-0.5
			c0.3-0.4,0.5-0.8,0.5-1.3V15c0-0.6,0.2-1.1,0.6-1.5c0.4-0.4,0.8-0.7,1.4-0.7c0.5,0,1,0.2,1.4,0.7c0.4,0.4,0.6,1,0.6,1.5
			c0,0,0.1,9.9,0.1,10c-0.1,0.1-0.3,0.2-0.4,0.4c-1.3,1.4-2,3-2,5c0,2,0.7,3.6,2,5c1.3,1.4,3,2,4.9,2c0.2,0,1.5,0,3.2,0.1
			c-0.1,0.1-0.1,0.1-0.2,0.2c-0.2,0.2-0.4,0.3-0.7,0.3h-2.4c-2,0-3.6,0.7-4.9,2c-1.3,1.4-2,3-2,5c0,2,0.7,3.6,2,4.9
			c1.4,1.4,3,2,4.9,2c2,0,3.6-0.7,4.9-2s2-3,2-4.9c0-0.5-0.2-1-0.5-1.4c-0.4-0.4-0.8-0.5-1.3-0.5c-0.5,0-1,0.2-1.3,0.5
			c-0.4,0.4-0.5,0.8-0.5,1.3c0,0.9-0.3,1.7-1,2.3c-0.7,0.7-1.4,1-2.3,1s-1.7-0.3-2.3-1c-0.7-0.7-1-1.4-1-2.3c0-0.9,0.3-1.7,1-2.3
			c0.7-0.7,1.4-1,2.3-1h2.3c1.2,0,2.4-0.5,3.3-1.4c0.8-0.8,1.2-1.7,1.3-2.9c1.4,0,2.7,0,3.6-0.1l0,0c0.9-0.1,1.6-0.8,1.6-1.8
			c0-0.1,0-0.2,0-0.3l0,0v-6.1c0-0.6,0.2-1.1,0.7-1.5c0.4-0.4,1-0.7,1.5-0.7c0.6,0,1.1,0.2,1.5,0.7c0.4,0.4,0.7,1,0.7,1.5v6.9v1.2
			c0,1.7,0.5,3.1,1.7,4.2c1.1,1.1,2.5,1.7,4.2,1.7h0.1c0.5,0,1-0.2,1.4-0.5c0.4-0.4,0.5-0.8,0.5-1.3C151.1,41,151,40.6,150.6,40.2z
			 M130,33.7c-1.7,0-3.1,0-3.3,0c-0.9,0-1.7-0.3-2.3-1c-0.7-0.7-1-1.4-1-2.3c0-0.9,0.3-1.7,1-2.3c0.7-0.7,1.4-1,2.3-1
			c0.9,0,1.7,0.3,2.3,1c0.7,0.7,1,1.4,1,2.3V33.7z"/>
		<path fill="#FFFFFF" d="M112.7,23.9c-0.4-0.4-0.9-0.5-1.5-0.5c-1.7,0-3.2,0.5-4.3,1.5c-1.2,1-1.7,2.3-1.7,3.8v1.5
			c0,0,0,0.4-0.1,1.1c0,0.2,0,0.4,0,0.5c0,0.5-0.2,0.9-0.5,1.2c-0.4,0.3-0.8,0.6-1.4,0.6h-8.1c-0.8,0-1.5-0.3-2.1-1
			C92.3,32,92,31.3,92,30.4s0.3-1.7,0.9-2.3c0.6-0.7,1.3-1,2.1-1c0.2,0,0.4,0,0.7,0.1l-1.8,2c-0.4,0.4-0.5,0.8-0.5,1.3
			c0,0.5,0.2,1,0.5,1.4c0.4,0.4,0.8,0.6,1.2,0.6c0.4,0,0.8-0.2,1.2-0.6l3.3-3.4c0.5-0.4,0.7-0.9,0.7-1.5c0-0.5-0.2-0.9-0.5-1.2
			c-1.3-1.4-2.9-2.1-4.7-2.1c-1.8,0-3.4,0.7-4.6,2c-1.2,1.4-1.9,3-1.9,5c0,2,0.7,3.6,1.9,5s2.8,2,4.6,2h8.4c0.5,0,2-0.4,2.7-0.8
			c0,0,0,0,0.1-0.1c0.4-0.2,0.8-0.5,1.1-0.8c1.2-1,1.8-2.3,1.8-3.8v-3.2c0-0.5,0.2-0.8,0.5-1.1s0.8-0.5,1.4-0.5
			c0.6-0.1,1.1-0.2,1.5-0.5c0.4-0.4,0.5-0.8,0.5-1.3C113.3,24.7,113,24.3,112.7,23.9z"/>
	</g>
</g>
<g id="troquel">
</g>
</svg>
