<?xml version="1.0" encoding="utf-8"?>
<!-- Generator: Adobe Illustrator 18.0.0, SVG Export Plug-In . SVG Version: 6.00 Build 0)  -->
<!DOCTYPE svg PUBLIC "-//W3C//DTD SVG 1.1//EN" "http://www.w3.org/Graphics/SVG/1.1/DTD/svg11.dtd">
<svg version="1.1" id="Layer_1" xmlns="http://www.w3.org/2000/svg" xmlns:xlink="http://www.w3.org/1999/xlink" x="0px" y="0px"
	 viewBox="50 96 120.3 66.2" enable-background="new 50 96 120.3 66.2" xml:space="preserve">
<g id="troquel">
</g>
<g>
	<path fill="#CFCFCF" d="M139.1,128.5c-1,0-1.8,0.3-2.5,1c-0.7,0.7-1,1.5-1,2.5c0,1,0.3,1.8,1,2.5c0.7,0.7,1.5,1,2.5,1
		c0.2,0,1.7,0,3.5,0v-3.5c0-1-0.3-1.8-1-2.5C140.9,128.9,140.1,128.5,139.1,128.5z"/>
	<path fill="#CFCFCF" d="M118.2,113.3c-0.9,0-1.6,0.3-2.2,1c-0.6,0.7-1,1.5-1,2.5s0.3,1.8,1,2.5c0.6,0.7,1.3,1,2.2,1s1.7-0.3,2.3-1
		c0.6-0.7,1-1.5,1-2.5s-0.3-1.8-1-2.5C119.9,113.6,119.1,113.3,118.2,113.3z"/>
	<path fill="#CFCFCF" d="M84.2,120.2c0.9,0,1.7-0.3,2.4-1c0.7-0.6,1-1.5,1-2.5c0-1-0.4-1.8-1-2.5c-0.6-0.7-1.4-1-2.4-1
		c-0.9,0-1.7,0.3-2.4,1c-0.6,0.7-1,1.5-1,2.5c0,1,0.3,1.8,1,2.5C82.5,119.9,83.2,120.2,84.2,120.2z"/>
	<path fill="#CFCFCF" d="M166.3,140.1c-0.7-0.6-1.5-1.1-2.4-1.3l-0.6-0.1v-8c0-2.7-1-5-2.7-6.8c-1.7-1.7-4-2.7-6.5-2.7
		s-4.8,1-6.5,2.7c-0.1,0.1-0.1,0.1-0.2,0.2l-0.7,0.8l-0.6-0.6c-1.4-1.5-3.1-2.4-5-2.8l-0.6-0.1v-5.9c0-2.6-0.9-4.9-2.5-6.7
		c-1.7-1.8-3.8-2.8-6.2-2.8c-2.4,0-4.5,1-6.1,2.7l-0.6,0.6l-0.6-0.6c-1.8-1.8-4.1-2.7-6.6-2.7c-1.3,0-2.5,0.3-3.7,0.8l-1.3,0.6
		l0.1-1.4c0-0.2,0-0.4,0-0.6c0-1.5-0.5-2.8-1.5-3.9c-1-1.1-2.3-1.7-3.7-1.7s-2.7,0.6-3.7,1.7c-1,1-1.5,2.4-1.5,3.8v0.8h-3.6
		l-0.2-0.5c-0.3-0.6-0.6-1.1-1-1.5c-0.9-1-2.1-1.5-3.4-1.5c-1.4,0-2.6,0.6-3.5,1.5c-0.6,0.7-1.1,1.6-1.3,2.5l-0.2,1.1l-1-0.5
		c-1.4-0.8-2.9-1.1-4.6-1.1c-1.8,0-3.4,0.4-4.8,1.3l-0.9,0.5l-0.3-1c-0.4-1.5-1.1-2.9-2.2-4c-1.7-1.8-3.9-2.7-6.4-2.7
		c-1.3,0-2.5,0.3-3.6,0.8l-0.3,0.1l-0.3-0.1c-1.1-0.5-2.3-0.8-3.6-0.8c-2.5,0-4.7,1-6.4,2.7c-1.7,1.8-2.6,4.1-2.6,6.8v12.7
		c0,1.5,0.5,2.7,1.5,3.7c0.9,0.9,2.1,1.4,3.4,1.4s2.5-0.5,3.4-1.5l0.1-0.1l0.7-0.6l0.6,0.7c0.9,1,2.1,1.5,3.4,1.5
		c0.8,0,1.5-0.2,2.2-0.5l0.9-0.4l0.3,1c0.4,1.4,1.1,2.7,2.2,3.8c1.7,1.8,3.9,2.7,6.4,2.7h0.1c0.3,0,0.6,0,0.8-0.1l0.8-0.1l0.2,0.8
		c0.4,2,1.3,3.7,2.7,5.2c1.9,2,4.4,3.1,7.1,3.1s5.2-1,7.1-3.1c0.1,0,0.8-0.8,0.8-0.8l0.6,0.7c0.1,0.1,0.1,0.1,0.2,0.2
		c2,2,4.5,2.9,7.3,2.9c0,0,8.4,0,9.5,0c2.4,0,4.5-0.9,6.1-2.5c0.4-0.4,0.7-0.8,1-1.2l1-1.5l0.4,1.7c0.3,0.8,0.6,1.5,1.1,2
		c0.9,1,2.1,1.5,3.4,1.5c0.1,0,0.2,0,0.3,0l1.3-0.1l-0.4,1.2c-0.4,1.2-0.7,2.5-0.7,3.9c0,2.9,1,5.5,3.1,7.6c2,2,4.5,3.1,7.3,3.1
		s5.4-1.1,6.8-3.2c2-2,3.1-4.7,3.1-7.6c0-1.3-0.4-2.4-1.1-3.3l-0.4-0.4l0.3-0.5c0.1-0.1,0.1-0.2,0.2-0.3l0.3-0.5l0.6,0.1
		c0.2,0.1,0.4,0.1,0.7,0.1c1.1,0,2-0.3,2.8-0.8l1-0.6l0.3,1.1c0.4,1.6,1.3,3,2.4,4.1c1.8,1.7,4,2.7,6.6,2.7h0.1
		c1.3,0,2.5-0.5,3.4-1.4c1-1,1.5-2.3,1.5-3.8C167.7,142.4,167.2,141.1,166.3,140.1z M106.7,103.7c0.4-0.4,1-0.7,1.5-0.7
		s1.1,0.3,1.5,0.7c0.4,0.5,0.6,1.1,0.6,1.7c0,0.7-0.2,1.2-0.6,1.7c-0.4,0.4-1,0.7-1.5,0.7s-1.1-0.3-1.5-0.7
		c-0.4-0.5-0.6-1.1-0.6-1.7C106.1,104.8,106.2,104.2,106.7,103.7z M110,111.2v11c0,0.6-0.2,1-0.5,1.4c-0.3,0.4-0.8,0.6-1.3,0.6
		s-1-0.2-1.3-0.6c-0.3-0.3-0.5-0.8-0.5-1.4v-11c0-0.6,0.2-1,0.5-1.4c0.3-0.4,0.8-0.6,1.3-0.6C109.4,109.2,110.1,109.9,110,111.2z
		 M79.2,111.3c1.4-1.5,3.1-2.2,5.1-2.2s3.7,0.7,5.1,2.2c1.3,1.5,2,3.2,2,5.4c0,2.1-0.6,3.9-2,5.4s-3.1,2.2-5.1,2.2s-3.7-0.7-5.1-2.2
		c-1.3-1.5-2-3.2-2-5.4C77.1,114.5,77.8,112.8,79.2,111.3z M79.3,130.1c-0.3,0.4-0.8,0.6-1.3,0.6h-0.1c-1.7,0-3.1-0.6-4.3-1.8
		c-1.1-1.2-1.7-2.7-1.7-4.5v-14.8c0-0.6-0.2-1.2-0.6-1.7c-0.4-0.4-1-0.7-1.6-0.7c-0.8,0-1.3,0.3-1.8,1v14.1c0,0.6-0.1,1-0.5,1.4
		c-0.3,0.4-0.8,0.6-1.3,0.6s-1-0.2-1.3-0.6c-0.3-0.3-0.5-0.8-0.5-1.4v-12.7c0-0.6-0.3-1.2-0.7-1.7c-0.4-0.4-1-0.7-1.6-0.7
		c-0.6,0-1.1,0.3-1.6,0.7c-0.4,0.5-0.6,1.1-0.6,1.7v12.7c0,0.6-0.2,1-0.5,1.4c-0.3,0.4-0.8,0.6-1.3,0.6s-1-0.2-1.4-0.6
		c-0.3-0.3-0.5-0.8-0.5-1.4v-12.7c0-1.8,0.6-3.3,1.7-4.5c1.1-1.2,2.5-1.8,4.3-1.8c1.5,0,2.7,0.5,3.9,1.5c1.1-1,2.4-1.5,3.9-1.5
		c1.7,0,3.1,0.6,4.3,1.8c1.1,1.2,1.7,2.7,1.7,4.5v14.7c0,0.7,0.2,1.3,0.6,1.7c0.4,0.4,1,0.7,1.6,0.7H78c0.6,0,1,0.1,1.3,0.5
		c0.3,0.4,0.5,0.9,0.5,1.5S79.7,129.7,79.3,130.1z M96.7,123.8v8.2c0,2-0.7,3.8-2.1,5.3c-1.4,1.5-3.1,2.2-5.1,2.2s-3.6-0.7-5-2.2
		c-1.3-1.4-2-3.2-2-5.3c0-2.1,0.7-3.9,2.1-5.4s3.1-2.2,5.1-2.2c0.6,0,1,0.2,1.4,0.6c0.3,0.4,0.5,0.9,0.5,1.5s-0.1,1-0.5,1.4
		c-0.4,0.4-0.8,0.6-1.4,0.6c-0.9,0-1.7,0.3-2.4,1c-0.6,0.6-1,1.5-1,2.5c0,1,0.3,1.8,1,2.5c0.6,0.7,1.4,1,2.4,1c1,0,1.8-0.3,2.4-1
		c0.7-0.7,1-1.5,1-2.5v-11.5c0-0.3,0-2,0-2.6v-10.1c0-0.6,0.2-1.1,0.5-1.5c0.3-0.4,0.8-0.6,1.3-0.6c0.5,0,1,0.2,1.3,0.6
		c0.3,0.4,0.5,0.9,0.5,1.5v1.6h6.4c0.6,0,1,0.2,1.3,0.6c0.3,0.3,0.5,0.8,0.5,1.4c0,1.3-0.6,2-1.8,2h-6.4v4.6c0,0.6,0.2,1.2,0.6,1.7
		c0.4,0.4,1,0.7,1.6,0.7c0.6,0,1.1-0.3,1.6-0.7c0.4-0.4,0.6-1,0.6-1.7v-0.3c0-0.6,0.2-1,0.6-1.4c0.3-0.4,0.8-0.6,1.3-0.6
		c0.5,0,1,0.2,1.3,0.6c0.3,0.4,0.5,0.8,0.5,1.4v0.3c0,1.8-0.6,3.3-1.7,4.5c-1.1,1.2-2.6,1.8-4.3,1.8C98.2,124.2,97.4,124,96.7,123.8
		z M124,128c-0.4,0.3-1,0.5-1.6,0.6s-1.1,0.3-1.5,0.6c-0.4,0.3-0.6,0.7-0.6,1.2v3.4c0,1.6-0.6,3-1.9,4.1c-0.4,0.3-0.8,0.6-1.2,0.8
		c-0.1,0.1-0.1,0.1-0.1,0.1c-0.8,0.4-2.4,0.9-2.9,0.9h-9c-2,0-3.6-0.7-5-2.2c-1.3-1.5-2-3.2-2-5.4c0-2.2,0.7-3.9,2-5.4
		c1.3-1.5,3-2.2,5-2.2s3.6,0.8,5,2.3c0.4,0.4,0.6,0.8,0.6,1.3c0,0.6-0.3,1.1-0.8,1.6l-3.5,3.7c-0.4,0.4-0.8,0.6-1.3,0.6
		c-0.5,0-1-0.3-1.3-0.6c-0.4-0.4-0.6-0.9-0.6-1.5c0-0.5,0.2-1,0.6-1.4l2-2.1c-0.3-0.1-0.4-0.1-0.7-0.1c-0.9,0-1.7,0.3-2.3,1
		c-0.6,0.7-1,1.5-1,2.5s0.3,1.8,1,2.5c0.6,0.7,1.4,1,2.3,1h8.7c0.6,0,1.1-0.3,1.5-0.6c0.4-0.3,0.6-0.8,0.6-1.3c0-0.2,0-0.4,0-0.6
		c0.1-0.8,0.1-1.2,0.1-1.2v-1.6c0-1.6,0.6-3,1.8-4.1c1.3-1.1,2.8-1.7,4.7-1.7c0.6,0,1.1,0.2,1.6,0.6c0.4,0.4,0.6,0.8,0.6,1.6
		C124.6,127.2,124.4,127.7,124,128z M123.1,122.1c-1.3,1.5-2.9,2.2-4.8,2.2s-3.5-0.7-4.8-2.2c-1.3-1.5-2-3.2-2-5.4
		c0-2.2,0.7-3.9,2-5.4c1.3-1.5,2.9-2.2,4.8-2.2s3.6,0.7,4.8,2.2c1.3,1.5,2,3.2,2,5.4C125,118.9,124.3,120.6,123.1,122.1z
		 M130.1,137.5c0,0.6-0.2,1-0.5,1.4c-0.4,0.4-0.8,0.6-1.3,0.6c-0.6,0-1-0.2-1.3-0.6c-0.3-0.3-0.5-0.8-0.5-1.4v-11
		c0-0.6,0.2-1,0.5-1.4c0.4-0.4,0.8-0.6,1.3-0.6c1.2,0,1.8,0.7,1.8,2V137.5z M164.7,145.4c-0.4,0.4-0.9,0.6-1.5,0.6h-0.1
		c-1.8,0-3.3-0.6-4.5-1.8c-1.2-1.2-1.8-2.7-1.8-4.5v-1.3v-7.4c0-0.6-0.3-1.2-0.7-1.7s-1-0.7-1.7-0.7s-1.2,0.3-1.7,0.7
		c-0.4,0.4-0.7,1-0.7,1.7v6.5c0,0.1,0,0.2,0,0.3c0,1-0.8,1.8-1.7,1.9c-1,0.1-2.3,0.1-3.8,0.1c-0.1,1.2-0.6,2.2-1.4,3.1
		c-1,1-2.2,1.5-3.5,1.5h-2.5c-1,0-1.8,0.3-2.5,1c-0.7,0.6-1,1.5-1,2.5c0,1,0.3,1.8,1,2.5c0.7,0.7,1.5,1,2.5,1c1,0,1.8-0.3,2.5-1
		c0.7-0.7,1-1.5,1-2.5c0-0.6,0.2-1,0.6-1.4c0.4-0.4,0.8-0.6,1.4-0.6s1,0.2,1.4,0.6c0.3,0.4,0.5,0.9,0.5,1.5c0,2-0.7,3.8-2.2,5.3
		c-1.5,1.5-3.2,2.2-5.3,2.2c-2.1,0-3.8-0.7-5.3-2.2c-1.5-1.4-2.2-3.2-2.2-5.3c0-2.1,0.8-3.9,2.2-5.4s3.1-2.2,5.2-2.2h2.5
		c0.3,0,0.5-0.1,0.7-0.3c0.1-0.1,0.1-0.2,0.2-0.3c-1.8-0.1-3.2-0.1-3.4-0.1c-2.1,0-3.9-0.7-5.3-2.2c-1.5-1.5-2.2-3.2-2.2-5.4
		c0-2.2,0.8-3.9,2.2-5.4c0.1-0.2,0.3-0.3,0.4-0.4c0-0.1-0.1-10.7-0.1-10.7c0-0.6-0.3-1.2-0.6-1.7c-0.4-0.4-0.9-0.7-1.5-0.7
		c-0.6,0-1.1,0.3-1.5,0.7c-0.4,0.4-0.6,1-0.6,1.7v6.7c0,0.6-0.2,1-0.5,1.4c-0.3,0.4-0.8,0.6-1.3,0.6s-1-0.2-1.3-0.6
		c-0.3-0.3-0.5-0.8-0.5-1.4v-6.7c0-1.7,0.6-3.2,1.7-4.5c1.1-1.2,2.4-1.8,4-1.8c1.7,0,3,0.6,4.1,1.8c1.1,1.1,1.7,2.7,1.7,4.5v8.8
		c0,0.1,0,0.2,0,0.3c0.4-0.1,0.8-0.1,1.3-0.1c2.1,0,3.9,0.7,5.3,2.2c1.5,1.5,2.2,3.2,2.2,5.4v3.6c0.6,0,1.1,0,1.6,0v-4.8
		c0-1.8,0.6-3.3,1.8-4.5c1.2-1.2,2.7-1.8,4.5-1.8c1.7,0,3.2,0.6,4.5,1.8s1.8,2.7,1.8,4.5v8.7c0,0.6,0.3,1.2,0.7,1.7
		c0.4,0.4,1,0.7,1.7,0.7h0.1c0.6,0,1.1,0.2,1.5,0.6c0.4,0.4,0.6,0.8,0.6,1.5C165.3,144.5,165.1,145,164.7,145.4z"/>
</g>
<g id="troquel_1_">
</g>
</svg>
